<mxfile host="app.diagrams.net" agent="Mozilla/5.0 (Windows NT 10.0; Win64; x64) AppleWebKit/537.36 (KHTML, like Gecko) Chrome/127.0.0.0 Safari/537.36" version="24.7.4">
  <diagram name="Halaman-1" id="VZNZRwJM4C2FhYKim8gK">
    <mxGraphModel dx="880" dy="460" grid="1" gridSize="10" guides="1" tooltips="1" connect="1" arrows="1" fold="1" page="1" pageScale="1" pageWidth="827" pageHeight="1169" math="0" shadow="0">
      <root>
        <mxCell id="0" />
        <mxCell id="1" parent="0" />
        <mxCell id="VLXssXHSgUyoFlL0HlMk-1" value="" style="rounded=0;whiteSpace=wrap;html=1;" vertex="1" parent="1">
          <mxGeometry x="160" y="20" width="730" height="390" as="geometry" />
        </mxCell>
        <mxCell id="VLXssXHSgUyoFlL0HlMk-6" value="" style="edgeStyle=orthogonalEdgeStyle;rounded=0;orthogonalLoop=1;jettySize=auto;html=1;" edge="1" parent="1" source="VLXssXHSgUyoFlL0HlMk-3" target="VLXssXHSgUyoFlL0HlMk-5">
          <mxGeometry relative="1" as="geometry" />
        </mxCell>
        <mxCell id="VLXssXHSgUyoFlL0HlMk-3" value="User" style="rounded=1;whiteSpace=wrap;html=1;" vertex="1" parent="1">
          <mxGeometry x="180" y="60" width="80" height="40" as="geometry" />
        </mxCell>
        <mxCell id="VLXssXHSgUyoFlL0HlMk-8" value="" style="edgeStyle=orthogonalEdgeStyle;rounded=0;orthogonalLoop=1;jettySize=auto;html=1;" edge="1" parent="1" source="VLXssXHSgUyoFlL0HlMk-5" target="VLXssXHSgUyoFlL0HlMk-7">
          <mxGeometry relative="1" as="geometry" />
        </mxCell>
        <mxCell id="VLXssXHSgUyoFlL0HlMk-5" value="Daftar/Login" style="rounded=1;whiteSpace=wrap;html=1;" vertex="1" parent="1">
          <mxGeometry x="310" y="50" width="76" height="60" as="geometry" />
        </mxCell>
        <mxCell id="VLXssXHSgUyoFlL0HlMk-10" value="" style="edgeStyle=orthogonalEdgeStyle;rounded=0;orthogonalLoop=1;jettySize=auto;html=1;" edge="1" parent="1" source="VLXssXHSgUyoFlL0HlMk-7" target="VLXssXHSgUyoFlL0HlMk-9">
          <mxGeometry relative="1" as="geometry" />
        </mxCell>
        <mxCell id="VLXssXHSgUyoFlL0HlMk-7" value="Kirim" style="whiteSpace=wrap;html=1;rounded=1;" vertex="1" parent="1">
          <mxGeometry x="440" y="50" width="82" height="60" as="geometry" />
        </mxCell>
        <mxCell id="VLXssXHSgUyoFlL0HlMk-12" value="" style="edgeStyle=orthogonalEdgeStyle;rounded=0;orthogonalLoop=1;jettySize=auto;html=1;" edge="1" parent="1" source="VLXssXHSgUyoFlL0HlMk-9" target="VLXssXHSgUyoFlL0HlMk-11">
          <mxGeometry relative="1" as="geometry" />
        </mxCell>
        <mxCell id="VLXssXHSgUyoFlL0HlMk-9" value="Home" style="whiteSpace=wrap;html=1;rounded=1;" vertex="1" parent="1">
          <mxGeometry x="580" y="50" width="89" height="60" as="geometry" />
        </mxCell>
        <mxCell id="VLXssXHSgUyoFlL0HlMk-14" value="" style="edgeStyle=orthogonalEdgeStyle;rounded=0;orthogonalLoop=1;jettySize=auto;html=1;" edge="1" parent="1" source="VLXssXHSgUyoFlL0HlMk-11" target="VLXssXHSgUyoFlL0HlMk-13">
          <mxGeometry relative="1" as="geometry" />
        </mxCell>
        <mxCell id="VLXssXHSgUyoFlL0HlMk-11" value="Peminjaman/Reservasi" style="whiteSpace=wrap;html=1;rounded=1;" vertex="1" parent="1">
          <mxGeometry x="724.5" y="50" width="135.5" height="60" as="geometry" />
        </mxCell>
        <mxCell id="VLXssXHSgUyoFlL0HlMk-16" value="" style="edgeStyle=orthogonalEdgeStyle;rounded=0;orthogonalLoop=1;jettySize=auto;html=1;" edge="1" parent="1" source="VLXssXHSgUyoFlL0HlMk-13" target="VLXssXHSgUyoFlL0HlMk-15">
          <mxGeometry relative="1" as="geometry" />
        </mxCell>
        <mxCell id="VLXssXHSgUyoFlL0HlMk-13" value="Pilih jadwal" style="whiteSpace=wrap;html=1;rounded=1;" vertex="1" parent="1">
          <mxGeometry x="732.25" y="170" width="120" height="60" as="geometry" />
        </mxCell>
        <mxCell id="VLXssXHSgUyoFlL0HlMk-18" value="" style="edgeStyle=orthogonalEdgeStyle;rounded=0;orthogonalLoop=1;jettySize=auto;html=1;" edge="1" parent="1" source="VLXssXHSgUyoFlL0HlMk-15" target="VLXssXHSgUyoFlL0HlMk-17">
          <mxGeometry relative="1" as="geometry" />
        </mxCell>
        <mxCell id="VLXssXHSgUyoFlL0HlMk-15" value="Pilih waktu" style="whiteSpace=wrap;html=1;rounded=1;" vertex="1" parent="1">
          <mxGeometry x="570" y="170" width="120" height="60" as="geometry" />
        </mxCell>
        <mxCell id="VLXssXHSgUyoFlL0HlMk-21" value="" style="edgeStyle=orthogonalEdgeStyle;rounded=0;orthogonalLoop=1;jettySize=auto;html=1;" edge="1" parent="1" source="VLXssXHSgUyoFlL0HlMk-17" target="VLXssXHSgUyoFlL0HlMk-20">
          <mxGeometry relative="1" as="geometry" />
        </mxCell>
        <mxCell id="VLXssXHSgUyoFlL0HlMk-17" value="Alat" style="whiteSpace=wrap;html=1;rounded=1;" vertex="1" parent="1">
          <mxGeometry x="360" y="170" width="120" height="60" as="geometry" />
        </mxCell>
        <mxCell id="VLXssXHSgUyoFlL0HlMk-19" value="Pinjam alat" style="text;html=1;align=center;verticalAlign=middle;whiteSpace=wrap;rounded=0;" vertex="1" parent="1">
          <mxGeometry x="491" y="170" width="70" height="30" as="geometry" />
        </mxCell>
        <mxCell id="VLXssXHSgUyoFlL0HlMk-24" value="" style="edgeStyle=orthogonalEdgeStyle;rounded=0;orthogonalLoop=1;jettySize=auto;html=1;entryX=0.5;entryY=0;entryDx=0;entryDy=0;" edge="1" parent="1" source="VLXssXHSgUyoFlL0HlMk-20" target="VLXssXHSgUyoFlL0HlMk-23">
          <mxGeometry relative="1" as="geometry">
            <Array as="points">
              <mxPoint x="180" y="200" />
              <mxPoint x="180" y="270" />
              <mxPoint x="250" y="270" />
            </Array>
          </mxGeometry>
        </mxCell>
        <mxCell id="VLXssXHSgUyoFlL0HlMk-20" value="Jumlah orang" style="whiteSpace=wrap;html=1;rounded=1;" vertex="1" parent="1">
          <mxGeometry x="200" y="170" width="120" height="60" as="geometry" />
        </mxCell>
        <mxCell id="VLXssXHSgUyoFlL0HlMk-22" value="" style="endArrow=classic;html=1;rounded=0;" edge="1" parent="1" source="VLXssXHSgUyoFlL0HlMk-15" target="VLXssXHSgUyoFlL0HlMk-20">
          <mxGeometry width="50" height="50" relative="1" as="geometry">
            <mxPoint x="460" y="220" as="sourcePoint" />
            <mxPoint x="510" y="170" as="targetPoint" />
            <Array as="points">
              <mxPoint x="630" y="270" />
              <mxPoint x="260" y="270" />
            </Array>
          </mxGeometry>
        </mxCell>
        <mxCell id="VLXssXHSgUyoFlL0HlMk-26" value="" style="edgeStyle=orthogonalEdgeStyle;rounded=0;orthogonalLoop=1;jettySize=auto;html=1;" edge="1" parent="1" source="VLXssXHSgUyoFlL0HlMk-23" target="VLXssXHSgUyoFlL0HlMk-25">
          <mxGeometry relative="1" as="geometry" />
        </mxCell>
        <mxCell id="VLXssXHSgUyoFlL0HlMk-23" value="Checkout" style="whiteSpace=wrap;html=1;rounded=1;" vertex="1" parent="1">
          <mxGeometry x="190" y="310" width="120" height="60" as="geometry" />
        </mxCell>
        <mxCell id="VLXssXHSgUyoFlL0HlMk-29" value="" style="edgeStyle=orthogonalEdgeStyle;rounded=0;orthogonalLoop=1;jettySize=auto;html=1;" edge="1" parent="1" source="VLXssXHSgUyoFlL0HlMk-25" target="VLXssXHSgUyoFlL0HlMk-28">
          <mxGeometry relative="1" as="geometry" />
        </mxCell>
        <mxCell id="VLXssXHSgUyoFlL0HlMk-25" value="Pembayaran" style="whiteSpace=wrap;html=1;rounded=1;" vertex="1" parent="1">
          <mxGeometry x="380" y="310" width="120" height="60" as="geometry" />
        </mxCell>
        <mxCell id="VLXssXHSgUyoFlL0HlMk-27" style="edgeStyle=orthogonalEdgeStyle;rounded=0;orthogonalLoop=1;jettySize=auto;html=1;" edge="1" parent="1" source="VLXssXHSgUyoFlL0HlMk-1" target="VLXssXHSgUyoFlL0HlMk-1">
          <mxGeometry relative="1" as="geometry" />
        </mxCell>
        <mxCell id="VLXssXHSgUyoFlL0HlMk-31" value="" style="edgeStyle=orthogonalEdgeStyle;rounded=0;orthogonalLoop=1;jettySize=auto;html=1;" edge="1" parent="1" source="VLXssXHSgUyoFlL0HlMk-28" target="VLXssXHSgUyoFlL0HlMk-30">
          <mxGeometry relative="1" as="geometry" />
        </mxCell>
        <mxCell id="VLXssXHSgUyoFlL0HlMk-28" value="Rekapan" style="whiteSpace=wrap;html=1;rounded=1;" vertex="1" parent="1">
          <mxGeometry x="570" y="310" width="120" height="60" as="geometry" />
        </mxCell>
        <mxCell id="VLXssXHSgUyoFlL0HlMk-30" value="Selesai" style="whiteSpace=wrap;html=1;rounded=1;" vertex="1" parent="1">
          <mxGeometry x="750" y="310" width="120" height="60" as="geometry" />
        </mxCell>
        <mxCell id="VLXssXHSgUyoFlL0HlMk-32" value="Tidak pinjam alat" style="text;html=1;align=center;verticalAlign=middle;whiteSpace=wrap;rounded=0;" vertex="1" parent="1">
          <mxGeometry x="370" y="240" width="100" height="30" as="geometry" />
        </mxCell>
      </root>
    </mxGraphModel>
  </diagram>
</mxfile>
